<?xml version="1.0" encoding="UTF-8"?>
<!DOCTYPE svg PUBLIC "-//W3C//DTD SVG 1.1//EN" "http://www.w3.org/Graphics/SVG/1.1/DTD/svg11.dtd">
<svg xmlns="http://www.w3.org/2000/svg" version="1.1" width="31px" height="33px" style="shape-rendering:geometricPrecision; text-rendering:geometricPrecision; image-rendering:optimizeQuality; fill-rule:evenodd; clip-rule:evenodd" xmlns:xlink="http://www.w3.org/1999/xlink">
<g><path style="opacity:0.918" fill="#fefffe" d="M 14.5,-0.5 C 15.1667,-0.5 15.8333,-0.5 16.5,-0.5C 20.8333,4.5 25.5,9.16667 30.5,13.5C 30.5,19.1667 30.5,24.8333 30.5,30.5C 29.5,30.8333 28.8333,31.5 28.5,32.5C 26.1667,32.5 23.8333,32.5 21.5,32.5C 21.7899,28.0638 21.2899,23.7305 20,19.5C 16.2552,15.4339 12.9218,15.7673 10,20.5C 9.50115,24.4862 9.33449,28.4862 9.5,32.5C 7.16667,32.5 4.83333,32.5 2.5,32.5C 0.437172,26.1106 -0.0628275,19.444 1,12.5C 5.39537,7.93568 9.89537,3.60235 14.5,-0.5 Z"/></g>
<g><path style="opacity:0.87" fill="#fefffe" d="M 19.5,32.5 C 16.8333,32.5 14.1667,32.5 11.5,32.5C 11.3343,28.1539 11.501,23.8206 12,19.5C 14.5918,18.0183 16.9251,18.3517 19,20.5C 19.4988,24.4862 19.6655,28.4862 19.5,32.5 Z"/></g>
</svg>
